<svg xmlns="http://www.w3.org/2000/svg" version="1.1" xmlns:xlink="http://www.w3.org/1999/xlink" xmlns:svgjs="http://svgjs.com/svgjs" width="1440" height="560" preserveAspectRatio="none" viewBox="0 0 1440 560"><g mask="url(&quot;#SvgjsMask1028&quot;)" fill="none"><rect width="1440" height="560" x="0" y="0" fill="#1e3266"></rect><path d="M1536 560L0 560 L0 210.81Q102.63 193.44, 120 296.07Q158.21 214.28, 240 252.49Q267.18 159.67, 360 186.85Q441.19 148.04, 480 229.23Q536.13 213.37, 552 269.5Q617.61 215.11, 672 280.72Q690.96 179.68, 792 198.63Q846.1 132.72, 912 186.82Q976.67 179.5, 984 244.17Q1044.83 233, 1056 293.83Q1075.1 240.92, 1128 260.02Q1140.23 200.25, 1200 212.47Q1221.82 162.29, 1272 184.11Q1301.75 141.86, 1344 171.61Q1392.59 148.19, 1416 196.78Q1494.36 155.13, 1536 233.49z" fill="#182f5d"></path><path d="M1488 560L0 560 L0 335.41Q21.39 284.81, 72 306.2Q160.1 274.3, 192 362.4Q216.83 315.23, 264 340.05Q293.02 249.07, 384 278.09Q429.95 252.04, 456 298Q512.01 282.01, 528 338.03Q554.44 292.46, 600 318.9Q658.2 305.1, 672 363.29Q702.28 273.57, 792 303.85Q815.72 255.57, 864 279.29Q948.73 244.02, 984 328.75Q1054.36 327.11, 1056 397.47Q1075.84 297.31, 1176 317.15Q1217.72 238.87, 1296 280.59Q1380.16 244.75, 1416 328.92Q1460.65 301.57, 1488 346.22z" fill="#25467d"></path><path d="M1464 560L0 560 L0 444.27Q45.86 418.13, 72 463.98Q73.01 392.99, 144 393.99Q194.21 324.2, 264 374.41Q329.88 368.29, 336 434.17Q410.41 388.58, 456 462.98Q469.77 356.75, 576 370.52Q643.98 318.5, 696 386.47Q750.27 368.75, 768 423.02Q776.25 359.27, 840 367.52Q907.1 314.62, 960 381.71Q1026.71 376.42, 1032 443.14Q1097.7 388.85, 1152 454.55Q1155.58 386.13, 1224 389.71Q1273.72 319.44, 1344 369.16Q1421.86 327.01, 1464 404.87z" fill="#356cb1"></path><path d="M1536 560L0 560 L0 547.79Q28.97 504.76, 72 533.73Q124.85 466.58, 192 519.43Q232.82 440.25, 312 481.07Q377.96 427.03, 432 492.99Q543.98 484.97, 552 596.94Q552.96 477.9, 672 478.86Q724.25 411.11, 792 463.36Q906.68 458.04, 912 572.72Q913.13 501.86, 984 502.99Q1026.78 425.76, 1104 468.54Q1170.73 415.27, 1224 482Q1290.44 476.44, 1296 542.89Q1366.13 493.02, 1416 563.16Q1492.02 519.18, 1536 595.2z" fill="white"></path></g><defs><mask id="SvgjsMask1028"><rect width="1440" height="560" fill="#ffffff"></rect></mask></defs></svg>